<svg width="184" height="22" viewBox="0 0 184 22" fill="none" xmlns="http://www.w3.org/2000/svg">
<path d="M69.2 15H72.008C73.964 15 75.332 14.148 75.332 12.432C75.332 11.232 74.6 10.524 73.544 10.32V10.272C74.372 9.996 74.828 9.228 74.828 8.364C74.828 6.816 73.592 6.204 71.804 6.204H69.2V15ZM70.316 9.948V7.08H71.672C73.04 7.08 73.736 7.464 73.736 8.496C73.736 9.396 73.124 9.948 71.612 9.948H70.316ZM70.316 14.124V10.8H71.852C73.388 10.8 74.252 11.304 74.252 12.396C74.252 13.584 73.352 14.124 71.852 14.124H70.316ZM80.2067 15.168C82.0067 15.168 83.3747 14.196 83.3747 11.376V6.204H82.3067V11.412C82.3067 13.524 81.3707 14.184 80.2067 14.184C79.0547 14.184 78.1547 13.524 78.1547 11.412V6.204H77.0507V11.376C77.0507 14.196 78.4187 15.168 80.2067 15.168ZM86.9522 15H88.0562V11.592L90.6962 6.204H89.5562L88.4162 8.7C88.1402 9.348 87.8402 9.96 87.5282 10.62H87.4802C87.1802 9.96 86.9162 9.348 86.6162 8.7L85.4882 6.204H84.3002L86.9522 11.592V15ZM94.5828 15H95.6388V10.392C95.6388 9.456 95.5548 8.532 95.4948 7.644H95.5548L96.5028 9.456L99.6948 15H100.847V6.204H99.7788V10.776C99.7788 11.688 99.8628 12.684 99.9348 13.572H99.8748L98.9268 11.748L95.7228 6.204H94.5828V15ZM106.507 15.168C108.715 15.168 110.251 13.392 110.251 10.572C110.251 7.764 108.715 6.048 106.507 6.048C104.287 6.048 102.751 7.752 102.751 10.572C102.751 13.392 104.287 15.168 106.507 15.168ZM106.507 14.184C104.923 14.184 103.891 12.768 103.891 10.572C103.891 8.376 104.923 7.02 106.507 7.02C108.079 7.02 109.123 8.376 109.123 10.572C109.123 12.768 108.079 14.184 106.507 14.184ZM113.027 15H114.347L115.655 9.696C115.799 9.012 115.955 8.376 116.099 7.692H116.147C116.279 8.376 116.423 9.012 116.579 9.696L117.899 15H119.243L121.067 6.204H119.999L119.063 11.004C118.907 11.94 118.739 12.888 118.571 13.848H118.511C118.295 12.888 118.091 11.94 117.875 11.004L116.651 6.204H115.643L114.431 11.004C114.215 11.94 113.999 12.888 113.795 13.848H113.747C113.567 12.888 113.399 11.94 113.219 11.004L112.295 6.204H111.155L113.027 15ZM121.798 17.28C122.89 16.836 123.55 15.936 123.55 14.772C123.55 13.98 123.202 13.488 122.626 13.488C122.182 13.488 121.81 13.776 121.81 14.256C121.81 14.748 122.182 15.024 122.602 15.024C122.818 15.024 123.01 14.964 123.154 14.784L122.626 13.992L122.746 14.976C122.746 15.708 122.29 16.308 121.546 16.644L121.798 17.28ZM125.45 15H126.566V11.508H128.006C129.938 11.508 131.258 10.644 131.258 8.796C131.258 6.864 129.926 6.204 127.958 6.204H125.45V15ZM126.566 10.608V7.116H127.814C129.374 7.116 130.154 7.512 130.154 8.796C130.154 10.044 129.41 10.608 127.874 10.608H126.566ZM131.177 15H132.305L133.853 10.08C134.177 9.096 134.453 8.136 134.741 7.116H134.789C135.077 8.136 135.353 9.096 135.665 10.08L137.213 15H138.377L135.401 6.204H134.153L131.177 15ZM132.737 12.312H136.793V11.436H132.737V12.312ZM140.858 15H141.962V11.592L144.602 6.204H143.462L142.322 8.7C142.046 9.348 141.746 9.96 141.434 10.62H141.386C141.086 9.96 140.822 9.348 140.522 8.7L139.394 6.204H138.206L140.858 11.592V15ZM148.489 15H153.445V14.064H149.605V6.204H148.489V15ZM153.841 15H154.969L156.517 10.08C156.841 9.096 157.117 8.136 157.405 7.116H157.453C157.741 8.136 158.017 9.096 158.329 10.08L159.877 15H161.041L158.065 6.204H156.817L153.841 15ZM155.401 12.312H159.457V11.436H155.401V12.312ZM163.368 15H164.496V7.14H167.148V6.204H160.716V7.14H163.368V15ZM168.727 15H173.923V14.064H169.843V10.848H173.167V9.9H169.843V7.14H173.791V6.204H168.727V15ZM175.794 15H176.91V11.28H178.542C180.33 11.28 181.614 10.44 181.614 8.676C181.614 6.852 180.33 6.204 178.542 6.204H175.794V15ZM176.91 10.38V7.116H178.386C179.754 7.116 180.51 7.524 180.51 8.676C180.51 9.816 179.754 10.38 178.386 10.38H176.91ZM180.63 15H181.878L179.19 10.404L178.326 10.98L180.63 15Z" fill="#2A2C68"/>
<path d="M60 0V22" stroke="#2A2C68"/>
<path d="M46.9343 14.8523C45.9167 13.0803 45.1272 11.1855 44.6886 9.16786H43.0218C43.4604 11.1679 44.1798 13.0277 45.057 14.8523H46.9343ZM41.0861 3H39.0529C38.316 5.0878 37.4563 7.4524 36.0703 9.18931H37.4563V18.9362H39.2615V8.57525H38.6649C39.5948 6.99625 40.4019 4.71936 41.0861 3Z" fill="#2A2C68"/>
<path d="M48.407 15.0468V11.8689V8.4575V3.09668H50.0346V11.8693V15.0472C50.0346 17.5689 48.5854 18.9355 45.9063 18.9355H45.6484V17.138C47.2359 17.138 48.407 16.7691 48.407 15.0468Z" fill="#2A2C68"/>
<path d="M28.3708 9.43391V5.77881H20.0859V9.43391H28.3708ZM21.7721 7.15463H26.6842V8.05848H21.7721V7.15463Z" fill="#2A2C68"/>
<path d="M30.3216 9.92074H31.9938V5.00212H33.7064V3.34155H19.0859V5.00212H30.3216V9.92074Z" fill="#2A2C68"/>
<path d="M18.1172 11.9852H30.2171V15.1631C30.2171 16.8854 29.0049 17.2543 27.3618 17.2543V18.9356H27.6287C30.4017 18.9356 31.9017 17.6852 31.9017 15.1635V11.9856H33.956V10.407H18.1172V11.9852Z" fill="#2A2C68"/>
<path d="M9.59737 8.42521H16.1329V6.57331H9.59049V3.09644H7.72676V6.57331H1.3267V8.42521H7.63552C7.04968 11.6929 5.89381 15.0495 0.820312 17.0044L1.71144 18.6915C6.51411 16.8582 8.03325 13.9047 8.74923 11.0439C9.82199 14.0414 12.0417 17.1637 15.6873 18.6915L16.6591 16.9636C12.2472 14.9186 10.2765 11.391 9.59737 8.42521Z" fill="#2A2C68"/>
<path d="M28.3708 12.8452H20.0859V16.9877H28.3708V12.8452ZM26.7179 15.4774H21.7389V14.3554H26.7179V15.4774Z" fill="#2A2C68"/>
<rect x="40.5469" y="6.26465" width="11.4527" height="1.58388" fill="#2A2C68"/>
</svg>
