<svg width="93" height="24" viewBox="0 0 93 24" fill="none" xmlns="http://www.w3.org/2000/svg">
<path d="M87.8573 15.8997C86.8234 14.1206 86.0211 12.2182 85.5755 10.1925H83.8819C84.3276 12.2006 85.0585 14.0678 85.9498 15.8997H87.8573ZM81.9149 4H79.849C79.1002 6.09615 78.2267 8.47021 76.8184 10.2141H78.2267V20H80.0609V9.59755H79.4548C80.3996 8.01223 81.2197 5.72624 81.9149 4Z" fill="#2A2C68"/>
<path d="M89.3577 16.0958V12.9052V9.48016V4.0979H91.0115V12.9056V16.0962C91.0115 18.628 89.5389 20 86.8167 20H86.5547V18.1954C88.1677 18.1954 89.3577 17.825 89.3577 16.0958Z" fill="#2A2C68"/>
<path d="M68.9946 10.4598V6.79004H60.5762V10.4598H68.9946ZM62.2895 8.17136H67.2808V9.07883H62.2895V8.17136Z" fill="#2A2C68"/>
<path d="M70.9694 10.948H72.6685V6.00974H74.4087V4.34253H59.5527V6.00974H70.9694V10.948Z" fill="#2A2C68"/>
<path d="M58.5781 13.0211H70.8729V16.2117C70.8729 17.9408 69.6412 18.3112 67.9717 18.3112V19.9992H68.2429C71.0605 19.9992 72.5847 18.7438 72.5847 16.2121V13.0215H74.6721V11.4365H58.5781V13.0211Z" fill="#2A2C68"/>
<path d="M49.9185 9.44799H56.5592V7.58869H49.9115V4.0979H48.0177V7.58869H41.5145V9.44799H47.925C47.3297 12.7288 46.1552 16.0988 41 18.0615L41.9055 19.7554C46.7855 17.9147 48.3291 14.9494 49.0567 12.0771C50.1467 15.0867 52.4022 18.2215 56.1065 19.7554L57.094 18.0205C52.611 15.9673 50.6085 12.4257 49.9185 9.44799Z" fill="#2A2C68"/>
<path d="M68.9946 13.885H60.5762V18.044H68.9946V13.885ZM67.315 16.5278H62.2557V15.4013H67.315V16.5278Z" fill="#2A2C68"/>
<rect x="81.3633" y="7.27832" width="11.6372" height="1.59021" fill="#2A2C68"/>
<rect x="32" y="2" width="1" height="20" fill="#8587B8"/>
<path d="M20.0586 16.6563L11.9961 11.998V21.3107L20.0586 16.6563Z" fill="#D82400"/>
<path d="M3.93359 16.6563L11.9961 21.3107V11.998L3.93359 16.6563Z" fill="#F73603"/>
<path d="M24.0001 11.9979L22.3936 6.00073L20.0669 7.3435L24.0001 11.9979Z" fill="#DD5298"/>
<path d="M20.0569 16.6562L17.9941 22.3932L22.3836 17.999L20.0569 16.6562Z" fill="#3E1EE6"/>
<path d="M22.3936 17.999L24.0001 11.998L20.0669 16.6563L22.3936 17.999Z" fill="#624BEE"/>
<path d="M11.9961 2.68872L3.93359 7.34316L11.9961 11.9976V2.68872Z" fill="#FF8F08"/>
<path d="M20.0586 16.6569V7.34424L11.9961 11.9987L20.0586 16.6569Z" fill="#F73603"/>
<path d="M3.93359 7.34424V16.6569L11.9961 12.0024L3.93359 7.34424Z" fill="#FF6700"/>
<path d="M11.9961 24.0004L17.9958 22.3936L11.9961 21.311V24.0004Z" fill="#024D59"/>
<path d="M20.0569 7.34291L22.3836 6.00014L17.9941 1.60596L20.0569 7.34291Z" fill="#FFBA0D"/>
<path d="M20.0586 7.34316L11.9961 2.68872V12.0014L20.0586 7.34316Z" fill="#FF6700"/>
<path d="M1.61023 6.00073L0 11.9979L3.93696 7.3435L1.61023 6.00073Z" fill="#FFBA0D"/>
<path d="M11.9978 21.311L5.99805 22.3936L11.9978 24.0004V21.311Z" fill="#098979"/>
<path d="M3.94685 7.34291L6.0096 1.60596L1.62012 6.00014L3.94685 7.34291Z" fill="#FFD60B"/>
<path d="M11.9978 0L5.99805 1.6068L11.9978 2.68931V0Z" fill="#FFD60B"/>
<path d="M0 11.998L1.60646 17.999L3.93319 16.6563L0 11.998Z" fill="#FFBA0D"/>
<path d="M3.94685 16.6562L1.62012 17.999L6.0096 22.3932L3.94685 16.6562Z" fill="#22DDB9"/>
<path d="M17.9958 1.6068L11.9961 0V2.68931L17.9958 1.6068Z" fill="#FFBA0D"/>
<path d="M11.9961 21.3107L17.9958 22.3932L20.0586 16.6562L11.9961 21.3107Z" fill="#624BEE"/>
<path d="M3.93359 16.6562L5.99635 22.3932L11.9961 21.3107L3.93359 16.6562Z" fill="#0EAA7D"/>
<path d="M20.0586 7.34291L17.9958 1.60596L11.9961 2.68847L20.0586 7.34291Z" fill="#FF9B0B"/>
<path d="M20.0669 7.34424V16.6569L24.0001 12.0024L20.0669 7.34424Z" fill="#CE2874"/>
<path d="M11.9961 2.68847L5.99635 1.60596L3.93359 7.34291L11.9961 2.68847Z" fill="#FFBA0D"/>
<path d="M3.93319 16.6569V7.34424L0 11.9987L3.93319 16.6569Z" fill="#FF9B0B"/>
</svg>
